<?xml version='1.0' encoding='utf-8'?>
<svg xmlns="http://www.w3.org/2000/svg" xmlns:xlink="http://www.w3.org/1999/xlink" version="1.1" id="Слой_1" x="0px" y="0px" width="220.6324px" height="220.7864px" viewBox="0 0 220.6324 220.7864" enable-background="new 0 0 220.6324 220.7864" xml:space="preserve">
<line fill="none" stroke="#ADAAAA" stroke-width="0.75" stroke-miterlimit="10" x1="-19.3368" y1="220.2608" x2="219.8405" y2="220.2608" />
<line fill="none" stroke="#ADAAAA" stroke-width="0.75" stroke-miterlimit="10" x1="-19.1751" y1="240.2288" x2="220.0013" y2="240.2288" />
<line fill="none" stroke="#ADAAAA" stroke-width="0.75" stroke-miterlimit="10" x1="-19.1062" y1="239.7438" x2="-19.1062" y2="0.4018" />
<line fill="none" stroke="#ADAAAA" stroke-width="0.75" stroke-miterlimit="10" x1="-19.1062" y1="199.9814" x2="220.0711" y2="199.9814" />
<line fill="none" stroke="#ADAAAA" stroke-width="0.75" stroke-miterlimit="10" x1="20.6594" y1="239.9838" x2="20.6594" y2="0.3225" />
<line fill="none" stroke="#ADAAAA" stroke-width="0.75" stroke-miterlimit="10" x1="-18.8641" y1="179.702" x2="220.3123" y2="179.702" />
<line fill="none" stroke="#ADAAAA" stroke-width="0.75" stroke-miterlimit="10" x1="-19.0258" y1="0" x2="220.1369" y2="0" />
<line fill="none" stroke="#ADAAAA" stroke-width="0.75" stroke-miterlimit="10" x1="-19.0258" y1="19.965" x2="220.1369" y2="19.965" />
<line fill="none" stroke="#ADAAAA" stroke-width="0.75" stroke-miterlimit="10" x1="-19.0258" y1="39.936" x2="220.1369" y2="39.936" />
<line fill="none" stroke="#ADAAAA" stroke-width="0.75" stroke-miterlimit="10" x1="-19.0258" y1="59.901" x2="220.1515" y2="59.901" />
<line fill="none" stroke="#ADAAAA" stroke-width="0.75" stroke-miterlimit="10" x1="-19.0258" y1="79.867" x2="220.1515" y2="79.867" />
<line fill="none" stroke="#ADAAAA" stroke-width="0.75" stroke-miterlimit="10" x1="-19.0258" y1="99.834" x2="220.1515" y2="99.834" />
<line fill="none" stroke="#ADAAAA" stroke-width="0.75" stroke-miterlimit="10" x1="-19.0258" y1="119.799" x2="220.1515" y2="119.799" />
<line fill="none" stroke="#ADAAAA" stroke-width="0.75" stroke-miterlimit="10" x1="-19.0258" y1="139.768" x2="220.1515" y2="139.768" />
<line fill="none" stroke="#ADAAAA" stroke-width="0.75" stroke-miterlimit="10" x1="-19.0258" y1="159.734" x2="220.1515" y2="159.734" />
<line fill="none" stroke="#ADAAAA" stroke-width="0.75" stroke-miterlimit="10" x1="0.6964" y1="240.0378" x2="0.6964" y2="0.3755" />
<line fill="none" stroke="#ADAAAA" stroke-width="0.75" stroke-miterlimit="10" x1="60.5974" y1="239.7174" x2="60.5974" y2="0.3754" />
<line fill="none" stroke="#ADAAAA" stroke-width="0.75" stroke-miterlimit="10" x1="40.6304" y1="240.0378" x2="40.6304" y2="0.3755" />
<line fill="none" stroke="#ADAAAA" stroke-width="0.75" stroke-miterlimit="10" x1="80.5633" y1="240.0378" x2="80.5633" y2="0.3755" />
<line fill="none" stroke="#ADAAAA" stroke-width="0.75" stroke-miterlimit="10" x1="100.5293" y1="240.0378" x2="100.5293" y2="0.3755" />
<line fill="none" stroke="#ADAAAA" stroke-width="0.75" stroke-miterlimit="10" x1="120.4984" y1="239.7174" x2="120.4984" y2="0.3754" />
<line fill="none" stroke="#ADAAAA" stroke-width="0.75" stroke-miterlimit="10" x1="140.4633" y1="240.0378" x2="140.4633" y2="0.3754" />
<line fill="none" stroke="#ADAAAA" stroke-width="0.75" stroke-miterlimit="10" x1="160.4283" y1="240.0378" x2="160.4283" y2="0.3754" />
<line fill="none" stroke="#ADAAAA" stroke-width="0.75" stroke-miterlimit="10" x1="180.3963" y1="240.0378" x2="180.3963" y2="0.3754" />
<line fill="none" stroke="#ADAAAA" stroke-width="0.75" stroke-miterlimit="10" x1="200.3633" y1="240.0378" x2="200.3633" y2="0.3754" />
<line fill="none" stroke="#ADAAAA" stroke-width="0.75" stroke-miterlimit="10" x1="220.3313" y1="239.96" x2="220.3313" y2="0" />
<line fill="none" stroke="#0D0F0F" stroke-linecap="round" stroke-linejoin="round" stroke-miterlimit="8" x1="-18.8511" y1="79.867" x2="213.6995" y2="79.867" />
<line fill="none" stroke="#0D0F0F" stroke-linecap="round" stroke-linejoin="round" stroke-miterlimit="8" x1="140.4633" y1="240.0378" x2="140.4633" y2="3.8966" />
<g>
	<g>
		<g>
			<g>
				<g>
					<g>
						<g>
							<g>
								<g>
									<g>
										<g>
											<g>
												<defs>
													<rect id="SVGID_1_" x="125.5519" y="1.737" width="13.746" height="16.491" />
												</defs>
												<clipPath id="SVGID_00000106852690623512508440000005903235348489901725_">
													<use xlink:href="#SVGID_1_" overflow="visible" />
												</clipPath>
												<g clip-path="url(#SVGID_00000106852690623512508440000005903235348489901725_)">
													<path d="M131.8649,4.676c0.168,0.285,0.283,0.553,0.353,0.802c0.063,0.248,0.127,0.735,0.188,1.465l0.324,3.633               c0.297-0.354,0.725-0.911,1.285-1.684c0.271-0.374,0.604-0.884,1.004-1.527c0.239-0.396,0.389-0.67,0.438-0.822               c0.029-0.078,0.043-0.16,0.043-0.244c0-0.059-0.016-0.104-0.051-0.134c-0.035-0.032-0.125-0.073-0.271-0.12               c-0.146-0.049-0.271-0.139-0.359-0.264c-0.098-0.125-0.146-0.271-0.146-0.433c0-0.2,0.061-0.362,0.179-0.485               c0.116-0.123,0.267-0.187,0.439-0.187c0.218,0,0.398,0.091,0.556,0.271c0.149,0.186,0.229,0.432,0.229,0.741               c0,0.392-0.133,0.833-0.396,1.332c-0.269,0.5-0.775,1.271-1.534,2.3c-0.759,1.033-1.677,2.16-2.754,3.385               c-0.742,0.842-1.294,1.367-1.651,1.592c-0.355,0.219-0.668,0.327-0.925,0.327c-0.151,0-0.286-0.062-0.401-0.177               c-0.111-0.111-0.174-0.25-0.174-0.398c0-0.19,0.08-0.365,0.239-0.521c0.159-0.158,0.334-0.232,0.521-0.232               c0.102,0,0.184,0.021,0.242,0.063c0.041,0.023,0.084,0.094,0.131,0.209s0.09,0.193,0.129,0.232               c0.023,0.021,0.057,0.037,0.09,0.037c0.027,0,0.081-0.024,0.152-0.074c0.271-0.168,0.586-0.437,0.943-0.797               c0.475-0.482,0.821-0.877,1.051-1.185l-0.414-4.682c-0.067-0.771-0.172-1.242-0.312-1.41               c-0.143-0.167-0.368-0.251-0.692-0.251c-0.104,0-0.287,0.019-0.556,0.046l-0.063-0.271L131.8649,4.676z" />
												</g>
											</g>
										</g>
									</g>
								</g>
							</g>
						</g>
					</g>
				</g>
			</g>
		</g>
	</g>
</g>
<g>
	<g>
		<path d="M133.0293,82.7289c0.68,0,1.277,0.146,1.801,0.438c0.521,0.293,0.933,0.729,1.229,1.3    c0.296,0.573,0.443,1.167,0.443,1.783c0,1.092-0.316,2.236-0.952,3.437c-0.635,1.199-1.465,2.113-2.487,2.743    c-1.022,0.632-2.083,0.946-3.179,0.946c-0.787,0-1.445-0.174-1.976-0.521c-0.53-0.351-0.924-0.811-1.177-1.379    c-0.254-0.57-0.38-1.123-0.38-1.658c0-0.951,0.229-1.895,0.688-2.82c0.459-0.928,1.008-1.704,1.646-2.328    c0.639-0.623,1.316-1.104,2.04-1.438C131.4492,82.8969,132.2162,82.7289,133.0293,82.7289z M132.7732,83.2079    c-0.502,0-0.991,0.124-1.472,0.371c-0.479,0.248-0.955,0.652-1.428,1.217c-0.475,0.563-0.896,1.302-1.271,2.212    c-0.462,1.121-0.691,2.182-0.691,3.178c0,0.711,0.185,1.34,0.55,1.89c0.366,0.549,0.93,0.821,1.688,0.821    c0.457,0,0.905-0.111,1.346-0.338c0.438-0.227,0.896-0.609,1.374-1.156c0.598-0.688,1.101-1.563,1.506-2.625    c0.405-1.063,0.608-2.057,0.608-2.979c0-0.682-0.185-1.281-0.55-1.807C134.0632,83.4709,133.5102,83.2079,132.7732,83.2079z" />
	</g>
</g>
<rect x="127.7976" y="53.1774" fill="#FFFFFF" width="7.2584" height="13.4481" />
<g>
	<g>
		<path d="M129.93,56.0203l2.482-1.209h0.249v8.599c0,0.57,0.022,0.929,0.071,1.065c0.048,0.142,0.146,0.248,0.298,0.323    c0.149,0.075,0.456,0.116,0.918,0.127v0.278h-3.84v-0.278c0.481-0.011,0.793-0.052,0.936-0.123    c0.141-0.073,0.236-0.171,0.294-0.293c0.055-0.123,0.083-0.489,0.083-1.101v-5.498c0-0.739-0.024-1.215-0.075-1.426    c-0.035-0.16-0.102-0.277-0.191-0.354s-0.204-0.112-0.335-0.112c-0.187,0-0.444,0.077-0.773,0.23L129.93,56.0203z" />
	</g>
</g>
<line fill="none" stroke="#0D0F0F" stroke-miterlimit="8" stroke-dasharray="7.5,3" x1="80.5633" y1="1.8955" x2="80.5633" y2="242.0389" />
<polygon points="211.1466,79.8361 205.1405,75.3361 220.1515,79.8361 205.1405,84.3361 " />
<rect x="156.3086" y="81.1721" fill="#FFFFFF" width="7.4121" height="13.7604" />
<g>
	<g>
		<path d="M158.4683,84.5296l2.483-1.209h0.249v8.598c0,0.57,0.021,0.928,0.069,1.066s0.146,0.247,0.298,0.321    c0.15,0.075,0.456,0.116,0.918,0.127v0.277h-3.84v-0.277c0.481-0.011,0.793-0.051,0.936-0.123c0.142-0.071,0.236-0.17,0.294-0.293    c0.056-0.123,0.083-0.487,0.083-1.102v-5.498c0-0.738-0.024-1.215-0.075-1.426c-0.034-0.16-0.1-0.275-0.191-0.354    c-0.093-0.074-0.204-0.11-0.335-0.11c-0.187,0-0.442,0.075-0.773,0.231L158.4683,84.5296z" />
	</g>
</g>
<polygon points="140.536,9.006 136.036,15.01 140.536,0 145.036,15.01 " />
<g>
	<g>
		<g>
			<g>
				<g>
					<g>
						<g>
							<g>
								<g>
									<g>
										<g>
											<g>
												<defs>
													
														<rect id="SVGID_00000121253316964827167730000006656216384674414977_" x="206.156" y="81.1879" width="12.358" height="13.729" />
												</defs>
												<clipPath id="SVGID_00000044870080676591826690000014714618354107541124_">
													<use xlink:href="#SVGID_00000121253316964827167730000006656216384674414977_" overflow="visible" />
												</clipPath>
												<g clip-path="url(#SVGID_00000044870080676591826690000014714618354107541124_)">
													<path d="M211.99,84.1309c0.239,0.257,0.424,0.513,0.547,0.769c0.09,0.182,0.231,0.646,0.436,1.396l0.65-0.978               c0.172-0.231,0.381-0.461,0.627-0.674c0.246-0.215,0.461-0.356,0.646-0.438c0.115-0.055,0.248-0.074,0.394-0.074               c0.213,0,0.381,0.058,0.506,0.17c0.125,0.113,0.188,0.251,0.188,0.412c0,0.188-0.037,0.313-0.105,0.386               c-0.143,0.122-0.297,0.188-0.477,0.188c-0.104,0-0.216-0.021-0.332-0.064c-0.229-0.079-0.39-0.118-0.466-0.118               c-0.116,0-0.26,0.067-0.422,0.207c-0.307,0.255-0.67,0.749-1.092,1.479l0.604,2.539               c0.096,0.39,0.172,0.616,0.233,0.692c0.063,0.076,0.129,0.113,0.191,0.113c0.104,0,0.225-0.057,0.358-0.17               c0.271-0.228,0.5-0.521,0.691-0.885l0.258,0.133c-0.313,0.58-0.701,1.063-1.182,1.445               c-0.271,0.217-0.498,0.319-0.688,0.319c-0.272,0-0.494-0.149-0.655-0.465c-0.104-0.188-0.316-1.02-0.646-2.479               c-0.77,1.332-1.381,2.188-1.844,2.571c-0.306,0.244-0.592,0.367-0.871,0.367c-0.195,0-0.375-0.068-0.539-0.213               c-0.115-0.105-0.176-0.256-0.176-0.438c0-0.161,0.055-0.298,0.16-0.405c0.104-0.105,0.237-0.162,0.396-0.162               c0.154,0,0.322,0.08,0.502,0.236c0.127,0.108,0.229,0.17,0.295,0.17c0.063,0,0.135-0.039,0.23-0.117               c0.229-0.188,0.545-0.59,0.938-1.211c0.396-0.619,0.66-1.064,0.783-1.34c-0.307-1.195-0.473-1.828-0.494-1.896               c-0.11-0.316-0.264-0.546-0.438-0.68c-0.187-0.133-0.449-0.198-0.81-0.198c-0.108,0-0.24,0.006-0.393,0.019v-0.269               L211.99,84.1309z" />
												</g>
											</g>
										</g>
									</g>
								</g>
							</g>
						</g>
					</g>
				</g>
			</g>
		</g>
	</g>
</g>
<line fill="none" stroke="#0D0F0F" stroke-miterlimit="8" stroke-dasharray="7.5,3" x1="-19.0258" y1="119.799" x2="222.2102" y2="119.799" />
<path fill="none" stroke="#143B8F" stroke-width="1.25" stroke-linecap="round" stroke-linejoin="round" stroke-miterlimit="10" d="  M73.6995-5.2732c-0.2194,6.3492-0.6421,15.3323-1.5319,26.0963c-0.8719,10.547-1.4905,18.0307-2.8085,25.7335  c-3.2665,19.0908-5.1147,30.3627-13.6747,40.8375c-7.644,9.3539-16.9133,13.5665-20.9355,15.3414  c-10.0337,4.4278-20.2588,5.1617-40.7089,6.6295c-6.0528,0.4344-11.0826,0.6501-14.5532,0.766" />
<path fill="none" stroke="#143B8F" stroke-width="1.25" stroke-linecap="round" stroke-linejoin="round" stroke-miterlimit="10" d="  M87.2314,225.1879c0.8869-16.9247,3.1496-30.6396,5.1616-40.3404c3.1877-15.3692,5.774-20.7966,8.0676-24.6596  c6.9479-11.7023,16.4773-17.9222,20.3973-20.4198c10.2194-6.5111,20.5175-9.2613,58.5075-12.3674  c12.1328-0.992,27.5124-2.0548,45.4218-2.8085" />
<circle fill="#143B8F" stroke="#143B8F" stroke-width="0.75" stroke-miterlimit="10" cx="120.4984" cy="139.768" r="2.34" />
<circle fill="#143B8F" stroke="#143B8F" stroke-width="0.75" stroke-miterlimit="10" cx="100.7241" cy="159.735" r="2.34" />
<g data-role="fractional-hyperbola-overlay"><line x1="80.5638" y1="99.8345" x2="40.6308" y2="99.8345" stroke="#D12626" stroke-width="1.8"/><circle cx="40.6308" cy="99.8345" r="2.84" fill="#D12626"/></g></svg>