<svg xmlns="http://www.w3.org/2000/svg" width="257" height="245" viewBox="0 0 257 245"><line x1="14.000" y1="12" x2="14.000" y2="233" stroke="#ADAAAA" stroke-width="0.75"/><line x1="34.800" y1="12" x2="34.800" y2="233" stroke="#ADAAAA" stroke-width="0.75"/><line x1="55.600" y1="12" x2="55.600" y2="233" stroke="#ADAAAA" stroke-width="0.75"/><line x1="76.400" y1="12" x2="76.400" y2="233" stroke="#ADAAAA" stroke-width="0.75"/><line x1="97.200" y1="12" x2="97.200" y2="233" stroke="#ADAAAA" stroke-width="0.75"/><line x1="118.000" y1="12" x2="118.000" y2="233" stroke="#ADAAAA" stroke-width="0.75"/><line x1="138.800" y1="12" x2="138.800" y2="233" stroke="#ADAAAA" stroke-width="0.75"/><line x1="159.600" y1="12" x2="159.600" y2="233" stroke="#ADAAAA" stroke-width="0.75"/><line x1="180.400" y1="12" x2="180.400" y2="233" stroke="#ADAAAA" stroke-width="0.75"/><line x1="201.200" y1="12" x2="201.200" y2="233" stroke="#ADAAAA" stroke-width="0.75"/><line x1="222.000" y1="12" x2="222.000" y2="233" stroke="#ADAAAA" stroke-width="0.75"/><line x1="0" y1="210.200" x2="238" y2="210.200" stroke="#ADAAAA" stroke-width="0.75"/><line x1="0" y1="189.400" x2="238" y2="189.400" stroke="#ADAAAA" stroke-width="0.75"/><line x1="0" y1="168.600" x2="238" y2="168.600" stroke="#ADAAAA" stroke-width="0.75"/><line x1="0" y1="147.800" x2="238" y2="147.800" stroke="#ADAAAA" stroke-width="0.75"/><line x1="0" y1="127.000" x2="238" y2="127.000" stroke="#ADAAAA" stroke-width="0.75"/><line x1="0" y1="106.200" x2="238" y2="106.200" stroke="#ADAAAA" stroke-width="0.75"/><line x1="0" y1="85.400" x2="238" y2="85.400" stroke="#ADAAAA" stroke-width="0.75"/><line x1="0" y1="64.600" x2="238" y2="64.600" stroke="#ADAAAA" stroke-width="0.75"/><line x1="0" y1="43.800" x2="238" y2="43.800" stroke="#ADAAAA" stroke-width="0.75"/><line x1="0" y1="23.000" x2="238" y2="23.000" stroke="#ADAAAA" stroke-width="0.75"/><line x1="0" y1="127" x2="245" y2="127" stroke="#000000" stroke-width="1.5"/><line x1="118" y1="233" x2="118" y2="4" stroke="#000000" stroke-width="1.5"/><path d="M245 127l-8 -3v6z M118 4l-3 8h6z" fill="#000000"/><path d="M0.000 145.332 L0.244 145.370 L0.488 145.408 L0.732 145.447 L0.976 145.485 L1.220 145.524 L1.464 145.562 L1.708 145.601 L1.952 145.641 L2.196 145.680 L2.440 145.719 L2.684 145.759 L2.928 145.799 L3.172 145.839 L3.416 145.879 L3.660 145.919 L3.904 145.959 L4.148 146.000 L4.392 146.041 L4.636 146.082 L4.880 146.123 L5.124 146.164 L5.368 146.206 L5.612 146.248 L5.856 146.289 L6.100 146.331 L6.344 146.374 L6.587 146.416 L6.831 146.459 L7.075 146.502 L7.319 146.545 L7.563 146.588 L7.807 146.631 L8.051 146.675 L8.295 146.718 L8.539 146.762 L8.783 146.806 L9.027 146.851 L9.271 146.895 L9.515 146.940 L9.759 146.985 L10.003 147.030 L10.247 147.076 L10.491 147.121 L10.735 147.167 L10.979 147.213 L11.223 147.259 L11.467 147.305 L11.711 147.352 L11.955 147.399 L12.199 147.446 L12.443 147.493 L12.687 147.541 L12.931 147.588 L13.175 147.636 L13.419 147.684 L13.663 147.733 L13.907 147.781 L14.151 147.830 L14.395 147.879 L14.639 147.929 L14.883 147.978 L15.127 148.028 L15.371 148.078 L15.615 148.128 L15.859 148.179 L16.103 148.229 L16.347 148.280 L16.591 148.331 L16.835 148.383 L17.079 148.435 L17.323 148.486 L17.567 148.539 L17.811 148.591 L18.055 148.644 L18.299 148.697 L18.543 148.750 L18.787 148.803 L19.031 148.857 L19.275 148.911 L19.518 148.966 L19.762 149.020 L20.006 149.075 L20.250 149.130 L20.494 149.185 L20.738 149.241 L20.982 149.297 L21.226 149.353 L21.470 149.410 L21.714 149.466 L21.958 149.524 L22.202 149.581 L22.446 149.639 L22.690 149.697 L22.934 149.755 L23.178 149.813 L23.422 149.872 L23.666 149.931 L23.910 149.991 L24.154 150.051 L24.398 150.111 L24.642 150.171 L24.886 150.232 L25.130 150.293 L25.374 150.354 L25.618 150.416 L25.862 150.478 L26.106 150.540 L26.350 150.603 L26.594 150.666 L26.838 150.729 L27.082 150.793 L27.326 150.857 L27.570 150.921 L27.814 150.986 L28.058 151.051 L28.302 151.116 L28.546 151.182 L28.790 151.248 L29.034 151.315 L29.278 151.382 L29.522 151.449 L29.766 151.517 L30.010 151.585 L30.254 151.653 L30.498 151.722 L30.742 151.791 L30.986 151.860 L31.230 151.930 L31.474 152.000 L31.718 152.071 L31.962 152.142 L32.206 152.214 L32.449 152.286 L32.693 152.358 L32.937 152.431 L33.181 152.504 L33.425 152.577 L33.669 152.651 L33.913 152.726 L34.157 152.801 L34.401 152.876 L34.645 152.952 L34.889 153.028 L35.133 153.105 L35.377 153.182 L35.621 153.259 L35.865 153.337 L36.109 153.416 L36.353 153.495 L36.597 153.574 L36.841 153.654 L37.085 153.734 L37.329 153.815 L37.573 153.896 L37.817 153.978 L38.061 154.061 L38.305 154.143 L38.549 154.227 L38.793 154.311 L39.037 154.395 L39.281 154.480 L39.525 154.565 L39.769 154.651 L40.013 154.738 L40.257 154.825 L40.501 154.913 L40.745 155.001 L40.989 155.089 L41.233 155.179 L41.477 155.269 L41.721 155.359 L41.965 155.450 L42.209 155.542 L42.453 155.634 L42.697 155.726 L42.941 155.820 L43.185 155.914 L43.429 156.008 L43.673 156.104 L43.917 156.200 L44.161 156.296 L44.405 156.393 L44.649 156.491 L44.893 156.589 L45.137 156.688 L45.380 156.788 L45.624 156.889 L45.868 156.990 L46.112 157.091 L46.356 157.194 L46.600 157.297 L46.844 157.401 L47.088 157.506 L47.332 157.611 L47.576 157.717 L47.820 157.824 L48.064 157.931 L48.308 158.040 L48.552 158.149 L48.796 158.258 L49.040 158.369 L49.284 158.480 L49.528 158.593 L49.772 158.706 L50.016 158.819 L50.260 158.934 L50.504 159.049 L50.748 159.166 L50.992 159.283 L51.236 159.401 L51.480 159.520 L51.724 159.639 L51.968 159.760 L52.212 159.881 L52.456 160.004 L52.700 160.127 L52.944 160.251 L53.188 160.376 L53.432 160.503 L53.676 160.630 L53.920 160.758 L54.164 160.887 L54.408 161.017 L54.652 161.148 L54.896 161.280 L55.140 161.413 L55.384 161.547 L55.628 161.682 L55.872 161.818 L56.116 161.956 L56.360 162.094 L56.604 162.233 L56.848 162.374 L57.092 162.516 L57.336 162.658 L57.580 162.802 L57.824 162.948 L58.068 163.094 L58.311 163.241 L58.555 163.390 L58.799 163.540 L59.043 163.691 L59.287 163.844 L59.531 163.998 L59.775 164.153 L60.019 164.309 L60.263 164.467 L60.507 164.626 L60.751 164.786 L60.995 164.948 L61.239 165.111 L61.483 165.275 L61.727 165.441 L61.971 165.609 L62.215 165.778 L62.459 165.948 L62.703 166.120 L62.947 166.293 L63.191 166.468 L63.435 166.645 L63.679 166.823 L63.923 167.002 L64.167 167.184 L64.411 167.367 L64.655 167.551 L64.899 167.737 L65.143 167.925 L65.387 168.115 L65.631 168.307 L65.875 168.500 L66.119 168.695 L66.363 168.892 L66.607 169.091 L66.851 169.292 L67.095 169.495 L67.339 169.699 L67.583 169.906 L67.827 170.115 L68.071 170.325 L68.315 170.538 L68.559 170.753 L68.803 170.970 L69.047 171.189 L69.291 171.410 L69.535 171.634 L69.779 171.860 L70.023 172.088 L70.267 172.318 L70.511 172.551 L70.755 172.786 L70.999 173.024 L71.242 173.264 L71.486 173.507 L71.730 173.752 L71.974 174.000 L72.218 174.250 L72.462 174.504 L72.706 174.759 L72.950 175.018 L73.194 175.280 L73.438 175.544 L73.682 175.811 L73.926 176.081 L74.170 176.355 L74.414 176.631 L74.658 176.910 L74.902 177.193 L75.146 177.479 L75.390 177.768 L75.634 178.060 L75.878 178.356 L76.122 178.655 L76.366 178.958 L76.610 179.264 L76.854 179.574 L77.098 179.887 L77.342 180.205 L77.586 180.526 L77.830 180.851 L78.074 181.180 L78.318 181.513 L78.562 181.851 L78.806 182.192 L79.050 182.538 L79.294 182.888 L79.538 183.242 L79.782 183.601 L80.026 183.965 L80.270 184.333 L80.514 184.707 L80.758 185.085 L81.002 185.468 L81.246 185.856 L81.490 186.249 L81.734 186.648 L81.978 187.052 L82.222 187.461 L82.466 187.876 L82.710 188.297 L82.954 188.724 L83.198 189.157 L83.442 189.595 L83.686 190.040 L83.930 190.492 L84.173 190.950 L84.417 191.414 L84.661 191.886 L84.905 192.364 L85.149 192.850 L85.393 193.342 L85.637 193.843 L85.881 194.350 L86.125 194.866 L86.369 195.389 L86.613 195.921 L86.857 196.461 L87.101 197.009 L87.345 197.567 L87.589 198.133 L87.833 198.708 L88.077 199.293 L88.321 199.887 L88.565 200.491 L88.809 201.105 L89.053 201.730 L89.297 202.365 L89.541 203.011 L89.785 203.669 L90.029 204.337 L90.273 205.018 L90.517 205.710 L90.761 206.415 L91.005 207.133 L91.249 207.864 L91.493 208.608 L91.737 209.367 L91.981 210.139 L92.225 210.926 L92.469 211.728 L92.713 212.545 L92.957 213.379 L93.201 214.229 L93.445 215.095 L93.689 215.979 L93.933 216.881 L94.177 217.802 L94.421 218.741 L94.665 219.701 L94.909 220.680 L95.153 221.681 L95.397 222.703 L95.641 223.747 L95.885 224.814 L96.129 225.905 L96.373 227.021 L96.617 228.162 L96.861 229.330 L97.104 230.525 L97.348 231.748 L97.592 233.000" fill="none" stroke="#303030" stroke-width="2.5"/><path d="M136.810 12.000 L137.063 13.526 L137.316 15.012 L137.569 16.460 L137.822 17.871 L138.075 19.246 L138.328 20.587 L138.581 21.895 L138.834 23.171 L139.087 24.416 L139.340 25.633 L139.593 26.820 L139.846 27.980 L140.099 29.114 L140.352 30.221 L140.605 31.305 L140.858 32.364 L141.111 33.400 L141.364 34.413 L141.617 35.405 L141.870 36.375 L142.123 37.326 L142.376 38.256 L142.629 39.168 L142.882 40.061 L143.135 40.936 L143.388 41.794 L143.641 42.634 L143.894 43.458 L144.147 44.267 L144.400 45.060 L144.653 45.837 L144.906 46.600 L145.159 47.349 L145.412 48.084 L145.665 48.806 L145.917 49.515 L146.170 50.210 L146.423 50.894 L146.676 51.565 L146.929 52.225 L147.182 52.873 L147.435 53.510 L147.688 54.136 L147.941 54.752 L148.194 55.357 L148.447 55.952 L148.700 56.538 L148.953 57.114 L149.206 57.680 L149.459 58.238 L149.712 58.786 L149.965 59.326 L150.218 59.858 L150.471 60.381 L150.724 60.896 L150.977 61.403 L151.230 61.902 L151.483 62.394 L151.736 62.878 L151.989 63.356 L152.242 63.826 L152.495 64.289 L152.748 64.746 L153.001 65.196 L153.254 65.639 L153.507 66.076 L153.760 66.507 L154.013 66.932 L154.266 67.351 L154.519 67.764 L154.772 68.172 L155.025 68.574 L155.278 68.970 L155.531 69.362 L155.783 69.747 L156.036 70.128 L156.289 70.504 L156.542 70.875 L156.795 71.241 L157.048 71.602 L157.301 71.959 L157.554 72.311 L157.807 72.658 L158.060 73.001 L158.313 73.340 L158.566 73.675 L158.819 74.005 L159.072 74.332 L159.325 74.654 L159.578 74.973 L159.831 75.287 L160.084 75.598 L160.337 75.905 L160.590 76.209 L160.843 76.509 L161.096 76.805 L161.349 77.098 L161.602 77.387 L161.855 77.674 L162.108 77.957 L162.361 78.236 L162.614 78.513 L162.867 78.786 L163.120 79.056 L163.373 79.324 L163.626 79.588 L163.879 79.850 L164.132 80.108 L164.385 80.364 L164.638 80.617 L164.891 80.867 L165.144 81.115 L165.396 81.359 L165.649 81.602 L165.902 81.842 L166.155 82.079 L166.408 82.314 L166.661 82.546 L166.914 82.776 L167.167 83.003 L167.420 83.228 L167.673 83.451 L167.926 83.672 L168.179 83.891 L168.432 84.107 L168.685 84.321 L168.938 84.533 L169.191 84.743 L169.444 84.950 L169.697 85.156 L169.950 85.360 L170.203 85.562 L170.456 85.762 L170.709 85.960 L170.962 86.156 L171.215 86.350 L171.468 86.542 L171.721 86.733 L171.974 86.921 L172.227 87.108 L172.480 87.294 L172.733 87.477 L172.986 87.659 L173.239 87.839 L173.492 88.018 L173.745 88.194 L173.998 88.370 L174.251 88.544 L174.504 88.716 L174.757 88.886 L175.009 89.055 L175.262 89.223 L175.515 89.389 L175.768 89.554 L176.021 89.717 L176.274 89.879 L176.527 90.039 L176.780 90.199 L177.033 90.356 L177.286 90.513 L177.539 90.668 L177.792 90.821 L178.045 90.974 L178.298 91.125 L178.551 91.275 L178.804 91.423 L179.057 91.571 L179.310 91.717 L179.563 91.862 L179.816 92.006 L180.069 92.148 L180.322 92.290 L180.575 92.430 L180.828 92.569 L181.081 92.708 L181.334 92.844 L181.587 92.980 L181.840 93.115 L182.093 93.249 L182.346 93.382 L182.599 93.513 L182.852 93.644 L183.105 93.774 L183.358 93.902 L183.611 94.030 L183.864 94.156 L184.117 94.282 L184.370 94.407 L184.623 94.530 L184.875 94.653 L185.128 94.775 L185.381 94.896 L185.634 95.016 L185.887 95.135 L186.140 95.254 L186.393 95.371 L186.646 95.488 L186.899 95.603 L187.152 95.718 L187.405 95.832 L187.658 95.946 L187.911 96.058 L188.164 96.169 L188.417 96.280 L188.670 96.390 L188.923 96.499 L189.176 96.608 L189.429 96.715 L189.682 96.822 L189.935 96.928 L190.188 97.034 L190.441 97.138 L190.694 97.242 L190.947 97.346 L191.200 97.448 L191.453 97.550 L191.706 97.651 L191.959 97.751 L192.212 97.851 L192.465 97.950 L192.718 98.048 L192.971 98.146 L193.224 98.243 L193.477 98.339 L193.730 98.435 L193.983 98.530 L194.236 98.625 L194.488 98.719 L194.741 98.812 L194.994 98.904 L195.247 98.996 L195.500 99.088 L195.753 99.179 L196.006 99.269 L196.259 99.359 L196.512 99.448 L196.765 99.536 L197.018 99.624 L197.271 99.711 L197.524 99.798 L197.777 99.884 L198.030 99.970 L198.283 100.055 L198.536 100.140 L198.789 100.224 L199.042 100.308 L199.295 100.391 L199.548 100.473 L199.801 100.555 L200.054 100.637 L200.307 100.718 L200.560 100.798 L200.813 100.878 L201.066 100.958 L201.319 101.037 L201.572 101.116 L201.825 101.194 L202.078 101.271 L202.331 101.349 L202.584 101.425 L202.837 101.502 L203.090 101.577 L203.343 101.653 L203.596 101.728 L203.849 101.802 L204.101 101.876 L204.354 101.950 L204.607 102.023 L204.860 102.096 L205.113 102.168 L205.366 102.240 L205.619 102.311 L205.872 102.382 L206.125 102.453 L206.378 102.523 L206.631 102.593 L206.884 102.663 L207.137 102.732 L207.390 102.800 L207.643 102.869 L207.896 102.937 L208.149 103.004 L208.402 103.071 L208.655 103.138 L208.908 103.205 L209.161 103.271 L209.414 103.336 L209.667 103.402 L209.920 103.466 L210.173 103.531 L210.426 103.595 L210.679 103.659 L210.932 103.723 L211.185 103.786 L211.438 103.849 L211.691 103.911 L211.944 103.973 L212.197 104.035 L212.450 104.097 L212.703 104.158 L212.956 104.219 L213.209 104.279 L213.462 104.340 L213.715 104.399 L213.967 104.459 L214.220 104.518 L214.473 104.577 L214.726 104.636 L214.979 104.694 L215.232 104.752 L215.485 104.810 L215.738 104.867 L215.991 104.925 L216.244 104.981 L216.497 105.038 L216.750 105.094 L217.003 105.150 L217.256 105.206 L217.509 105.261 L217.762 105.316 L218.015 105.371 L218.268 105.426 L218.521 105.480 L218.774 105.534 L219.027 105.588 L219.280 105.641 L219.533 105.695 L219.786 105.748 L220.039 105.800 L220.292 105.853 L220.545 105.905 L220.798 105.957 L221.051 106.008 L221.304 106.060 L221.557 106.111 L221.810 106.162 L222.063 106.213 L222.316 106.263 L222.569 106.313 L222.822 106.363 L223.075 106.413 L223.328 106.462 L223.580 106.511 L223.833 106.560 L224.086 106.609 L224.339 106.658 L224.592 106.706 L224.845 106.754 L225.098 106.802 L225.351 106.849 L225.604 106.897 L225.857 106.944 L226.110 106.991 L226.363 107.038 L226.616 107.084 L226.869 107.130 L227.122 107.176 L227.375 107.222 L227.628 107.268 L227.881 107.313 L228.134 107.358 L228.387 107.403 L228.640 107.448 L228.893 107.493 L229.146 107.537 L229.399 107.581 L229.652 107.625 L229.905 107.669 L230.158 107.713 L230.411 107.756 L230.664 107.800 L230.917 107.843 L231.170 107.885 L231.423 107.928 L231.676 107.970 L231.929 108.013 L232.182 108.055 L232.435 108.097 L232.688 108.138 L232.941 108.180 L233.193 108.221 L233.446 108.262 L233.699 108.303 L233.952 108.344 L234.205 108.385 L234.458 108.425 L234.711 108.465 L234.964 108.505 L235.217 108.545 L235.470 108.585 L235.723 108.625 L235.976 108.664 L236.229 108.703 L236.482 108.742 L236.735 108.781 L236.988 108.820 L237.241 108.859 L237.494 108.897 L237.747 108.935 L238.000 108.973" fill="none" stroke="#303030" stroke-width="2.5"/><circle cx="222" cy="106.2" r="2.8" fill="#303030"/><text x="108" y="143" text-anchor="middle" font-family="Times New Roman, serif" font-size="16" font-style="normal" fill="#143B8F">0</text><text x="138.8" y="145" text-anchor="middle" font-family="Times New Roman, serif" font-size="16" font-style="normal" fill="#143B8F">1</text><text x="222" y="145" text-anchor="middle" font-family="Times New Roman, serif" font-size="16" font-style="normal" fill="#143B8F">5</text><text x="106" y="111" text-anchor="middle" font-family="Times New Roman, serif" font-size="16" font-style="normal" fill="#143B8F">1</text><text x="247" y="143" text-anchor="middle" font-family="Times New Roman, serif" font-size="16" font-style="italic" fill="#000000">x</text><text x="110" y="11" text-anchor="middle" font-family="Times New Roman, serif" font-size="16" font-style="italic" fill="#000000">y</text><text x="184" y="44" text-anchor="middle" font-family="Times New Roman, serif" font-size="16" font-style="italic" fill="#303030">y = f(x)</text><g data-role="unshifted-hyperbola-overlay"><line x1="118" y1="106.2" x2="222" y2="106.2" stroke="#D12626" stroke-width="1.8"/><circle cx="222" cy="106.2" r="2.838" fill="#D12626"/></g></svg>