<?xml version='1.0' encoding='utf-8'?>
<svg xmlns="http://www.w3.org/2000/svg" xmlns:xlink="http://www.w3.org/1999/xlink" version="1.1" id="Слой_1" x="0px" y="0px" width="225.167px" height="245.5px" viewBox="40.667 22.333 225.167 245.5" enable-background="new 40.667 22.333 225.167 245.5" xml:space="preserve">
<line fill="none" stroke="#ADAAAA" stroke-width="0.75" stroke-miterlimit="10" x1="223.208" y1="264.419" x2="223.208" y2="25.175" />
<line fill="none" stroke="#ADAAAA" stroke-width="0.75" stroke-miterlimit="10" x1="242.842" y1="264.232" x2="242.842" y2="24.987" />
<line fill="none" stroke="#ADAAAA" stroke-width="0.75" stroke-miterlimit="10" x1="262.808" y1="264.232" x2="262.808" y2="24.987" />
<line fill="none" stroke="#ADAAAA" stroke-width="0.75" stroke-miterlimit="10" x1="43.603" y1="264.407" x2="43.603" y2="25.151" />
<line fill="none" stroke="#ADAAAA" stroke-width="0.75" stroke-miterlimit="10" x1="63.565" y1="264.419" x2="63.565" y2="25.175" />
<line fill="none" stroke="#ADAAAA" stroke-width="0.75" stroke-miterlimit="10" x1="83.533" y1="264.419" x2="83.533" y2="25.175" />
<line fill="none" stroke="#ADAAAA" stroke-width="0.75" stroke-miterlimit="10" x1="103.5" y1="263.91" x2="103.5" y2="25.061" />
<line fill="none" stroke="#ADAAAA" stroke-width="0.75" stroke-miterlimit="10" x1="123.466" y1="264.471" x2="123.466" y2="106.625" />
<line fill="none" stroke="#ADAAAA" stroke-width="0.75" stroke-miterlimit="10" x1="123.375" y1="264.542" x2="123.375" y2="25.513" />
<line fill="none" stroke="#ADAAAA" stroke-width="0.75" stroke-miterlimit="10" x1="163.313" y1="264.387" x2="163.313" y2="25.189" />
<line fill="none" stroke="#ADAAAA" stroke-width="0.75" stroke-miterlimit="10" x1="183.272" y1="264.419" x2="183.272" y2="25.175" />
<line fill="none" stroke="#ADAAAA" stroke-width="0.75" stroke-miterlimit="10" x1="203.242" y1="264.419" x2="203.242" y2="25.175" />
<line fill="none" stroke="#ADAAAA" stroke-width="0.75" stroke-miterlimit="10" x1="43.879" y1="224.836" x2="263.126" y2="224.836" />
<line fill="none" stroke="#ADAAAA" stroke-width="0.75" stroke-miterlimit="10" x1="43.485" y1="264.44" x2="262.731" y2="264.44" />
<line fill="none" stroke="#ADAAAA" stroke-width="0.75" stroke-miterlimit="10" x1="43.208" y1="244.375" x2="262.455" y2="244.375" />
<line fill="none" stroke="#ADAAAA" stroke-width="0.75" stroke-miterlimit="10" x1="43.299" y1="164.955" x2="262.64" y2="164.955" />
<line fill="none" stroke="#ADAAAA" stroke-width="0.75" stroke-miterlimit="10" x1="43.507" y1="45.038" x2="262.85" y2="45.038" />
<line fill="none" stroke="#ADAAAA" stroke-width="0.75" stroke-miterlimit="10" x1="43.507" y1="65.005" x2="262.737" y2="65.005" />
<line fill="none" stroke="#ADAAAA" stroke-width="0.75" stroke-miterlimit="10" x1="43.602" y1="84.973" x2="262.737" y2="84.973" />
<line fill="none" stroke="#ADAAAA" stroke-width="0.75" stroke-miterlimit="10" x1="43.602" y1="104.938" x2="262.737" y2="104.938" />
<line fill="none" stroke="#ADAAAA" stroke-width="0.75" stroke-miterlimit="10" x1="43.602" y1="124.904" x2="262.737" y2="124.904" />
<line fill="none" stroke="#ADAAAA" stroke-width="0.75" stroke-miterlimit="10" x1="43.602" y1="184.807" x2="262.85" y2="184.807" />
<line fill="none" stroke="#ADAAAA" stroke-width="0.75" stroke-miterlimit="10" x1="43.602" y1="204.771" x2="262.85" y2="204.771" />
<line fill="none" stroke="#ADAAAA" stroke-width="0.75" stroke-miterlimit="10" x1="43.702" y1="25.007" x2="262.931" y2="25.007" />
<line fill="none" stroke="#ADAAAA" stroke-width="0.75" stroke-miterlimit="10" x1="43.796" y1="64.94" x2="262.933" y2="64.94" />
<line fill="none" stroke="#000000" stroke-miterlimit="10" x1="43.547" y1="144.833" x2="253.34" y2="144.833" />
<g>
	<g>
		<g>
			<g>
				<g>
					<g>
						<g>
							<g>
								<g>
									<g>
										<defs>
											<rect id="SVGID_1_" x="124.313" y="144.267" width="18.021" height="21.688" />
										</defs>
										<clipPath id="SVGID_2_">
											<use xlink:href="#SVGID_1_" overflow="visible" />
										</clipPath>
										<g clip-path="url(#SVGID_2_)">
											<path d="M135.173,149.507c0.717,0,1.348,0.156,1.896,0.469c0.552,0.313,0.979,0.771,1.291,1.375s0.47,1.23,0.47,1.885             c0,1.156-0.334,2.367-1.002,3.639c-0.67,1.271-1.539,2.232-2.615,2.898c-1.078,0.666-2.188,1-3.342,1             c-0.828,0-1.521-0.188-2.078-0.553c-0.56-0.367-0.972-0.854-1.233-1.457c-0.267-0.604-0.396-1.188-0.396-1.758             c0-1.008,0.237-2.002,0.726-2.98c0.486-0.979,1.063-1.803,1.729-2.463c0.674-0.654,1.391-1.166,2.146-1.521             C133.515,149.688,134.315,149.507,135.173,149.507z M134.901,150.02c-0.522,0-1.043,0.133-1.547,0.396             c-0.504,0.262-1.004,0.688-1.5,1.287c-0.496,0.596-0.938,1.375-1.338,2.338c-0.481,1.188-0.729,2.311-0.729,3.358             c0,0.75,0.189,1.416,0.578,1.996c0.385,0.58,0.979,0.871,1.771,0.871c0.479,0,0.946-0.119,1.409-0.354             c0.466-0.238,0.94-0.646,1.443-1.228c0.629-0.729,1.151-1.647,1.584-2.772c0.428-1.125,0.645-2.179,0.645-3.149             c0-0.72-0.188-1.354-0.577-1.907C136.265,150.292,135.685,150.02,134.901,150.02z" />
										</g>
									</g>
								</g>
							</g>
						</g>
					</g>
				</g>
			</g>
		</g>
	</g>
</g>
<rect x="158.774" y="148.576" fill="#FFFFFF" width="9" height="13.5" />
<rect x="132.36" y="118.25" fill="#FFFFFF" width="9" height="13.5" />
<g>
	<g>
		<g>
			<g>
				<g>
					<g>
						<g>
							<g>
								<g>
									<g>
										<defs>
											<rect id="SVGID_3_" x="131.106" y="115.237" width="12.435" height="20.521" />
										</defs>
										<clipPath id="SVGID_4_">
											<use xlink:href="#SVGID_3_" overflow="visible" />
										</clipPath>
										<g clip-path="url(#SVGID_4_)">
											<path d="M134.535,121.976l2.571-1.318h0.263v9.387c0,0.623,0.021,1.011,0.069,1.164c0.054,0.15,0.148,0.271,0.313,0.353             c0.156,0.082,0.478,0.128,0.951,0.14v0.305h-3.979v-0.305c0.5-0.012,0.816-0.057,0.969-0.136             c0.146-0.079,0.246-0.187,0.308-0.317c0.062-0.137,0.086-0.535,0.086-1.201v-6.002c0-0.81-0.021-1.328-0.078-1.559             c-0.034-0.175-0.104-0.303-0.192-0.385c-0.103-0.082-0.217-0.123-0.354-0.123c-0.188,0-0.461,0.085-0.808,0.254             L134.535,121.976z" />
										</g>
									</g>
								</g>
							</g>
						</g>
					</g>
				</g>
			</g>
		</g>
	</g>
</g>
<g>
	<g>
		<g>
			<g>
				<g>
					<g>
						<g>
							<g>
								<g>
									<g>
										<defs>
											<rect id="SVGID_5_" x="157.731" y="144.303" width="12.435" height="20.521" />
										</defs>
										<clipPath id="SVGID_6_">
											<use xlink:href="#SVGID_5_" overflow="visible" />
										</clipPath>
										<g clip-path="url(#SVGID_6_)">
											<path d="M161.16,151.04l2.571-1.316h0.263v9.385c0,0.623,0.021,1.015,0.069,1.164c0.054,0.152,0.148,0.271,0.313,0.354             c0.156,0.082,0.478,0.129,0.951,0.144v0.307h-3.979v-0.307c0.5-0.015,0.816-0.06,0.969-0.14             c0.146-0.075,0.246-0.188,0.308-0.313c0.062-0.137,0.086-0.535,0.086-1.201v-6.006c0-0.809-0.021-1.325-0.078-1.559             c-0.034-0.178-0.104-0.305-0.192-0.387c-0.103-0.082-0.217-0.123-0.354-0.123c-0.188,0-0.461,0.084-0.808,0.254             L161.16,151.04z" />
										</g>
									</g>
								</g>
							</g>
						</g>
					</g>
				</g>
			</g>
		</g>
	</g>
</g>
<line fill="none" stroke="#000000" stroke-miterlimit="10" x1="143.39" y1="264.44" x2="143.39" y2="31.418" />
<polygon points="253.34,144.833 247.334,140.333 262.346,144.833 247.334,149.333 " />
<polygon points="143.39,33.919 138.89,39.924 143.39,24.913 147.89,39.924 " />
<g>
	<g>
		<g>
			<g>
				<g>
					<defs>
						<rect id="SVGID_7_" x="248.66" y="146.71" width="12.359" height="13.729" />
					</defs>
					<clipPath id="SVGID_8_">
						<use xlink:href="#SVGID_7_" overflow="visible" />
					</clipPath>
					<g clip-path="url(#SVGID_8_)">
						<path d="M254.494,149.656c0.24,0.256,0.423,0.512,0.545,0.768c0.091,0.18,0.234,0.645,0.437,1.396l0.65-0.978        c0.172-0.231,0.381-0.461,0.627-0.674c0.246-0.215,0.461-0.356,0.647-0.438c0.115-0.052,0.248-0.073,0.392-0.073        c0.213,0,0.381,0.057,0.506,0.17c0.125,0.112,0.188,0.252,0.188,0.414c0,0.186-0.037,0.313-0.108,0.383        c-0.14,0.123-0.295,0.188-0.474,0.188c-0.104,0-0.215-0.021-0.332-0.066c-0.229-0.078-0.391-0.117-0.465-0.117        c-0.117,0-0.262,0.068-0.424,0.207c-0.307,0.256-0.67,0.75-1.092,1.48l0.604,2.539c0.094,0.389,0.172,0.618,0.234,0.693        c0.063,0.076,0.129,0.113,0.19,0.113c0.104,0,0.226-0.058,0.363-0.17c0.271-0.228,0.5-0.521,0.689-0.886l0.258,0.133        c-0.312,0.58-0.699,1.063-1.182,1.445c-0.271,0.217-0.498,0.321-0.687,0.321c-0.275,0-0.494-0.151-0.656-0.465        c-0.104-0.188-0.317-1.018-0.645-2.477c-0.769,1.332-1.381,2.188-1.844,2.572c-0.302,0.244-0.591,0.367-0.871,0.367        c-0.195,0-0.375-0.068-0.539-0.213c-0.115-0.105-0.176-0.254-0.176-0.437c0-0.162,0.055-0.298,0.161-0.405        c0.107-0.107,0.24-0.162,0.398-0.162c0.152,0,0.32,0.08,0.502,0.235c0.127,0.11,0.227,0.17,0.295,0.17        c0.06,0,0.135-0.039,0.229-0.116c0.229-0.189,0.545-0.591,0.942-1.212c0.396-0.618,0.66-1.065,0.783-1.342        c-0.309-1.194-0.475-1.826-0.494-1.896c-0.113-0.317-0.266-0.547-0.442-0.68c-0.183-0.133-0.449-0.199-0.806-0.199        c-0.112,0-0.242,0.006-0.395,0.018v-0.268L254.494,149.656z" />
					</g>
				</g>
			</g>
		</g>
	</g>
</g>
<g>
	<g>
		<g>
			<g>
				<g>
					<defs>
						<rect id="SVGID_9_" x="128.263" y="25.174" width="13.745" height="16.491" />
					</defs>
					<clipPath id="SVGID_10_">
						<use xlink:href="#SVGID_9_" overflow="visible" />
					</clipPath>
					<g clip-path="url(#SVGID_10_)">
						<path d="M134.576,28.113c0.168,0.285,0.282,0.552,0.35,0.801c0.063,0.248,0.128,0.736,0.189,1.465l0.323,3.632        c0.297-0.354,0.726-0.913,1.285-1.683c0.271-0.374,0.604-0.884,1.004-1.528c0.24-0.394,0.39-0.669,0.441-0.825        c0.029-0.078,0.043-0.159,0.043-0.243c0-0.056-0.016-0.101-0.051-0.133c-0.035-0.034-0.125-0.075-0.271-0.122        c-0.146-0.047-0.268-0.135-0.358-0.26c-0.099-0.126-0.146-0.27-0.146-0.433c0-0.201,0.061-0.363,0.178-0.486        s0.268-0.185,0.442-0.185c0.216,0,0.397,0.09,0.554,0.27c0.151,0.182,0.229,0.429,0.229,0.741        c0,0.391-0.133,0.833-0.396,1.332c-0.268,0.5-0.776,1.269-1.535,2.3c-0.758,1.033-1.676,2.16-2.754,3.383        c-0.742,0.841-1.293,1.369-1.651,1.59c-0.358,0.22-0.668,0.329-0.925,0.329c-0.151,0-0.286-0.06-0.401-0.176        c-0.114-0.113-0.174-0.25-0.174-0.4c0-0.191,0.08-0.366,0.239-0.523c0.16-0.158,0.334-0.234,0.521-0.234        c0.099,0,0.181,0.021,0.242,0.064c0.041,0.024,0.084,0.095,0.131,0.21c0.047,0.116,0.091,0.193,0.129,0.232        c0.022,0.022,0.054,0.037,0.089,0.037c0.028,0,0.082-0.024,0.153-0.074c0.271-0.167,0.586-0.435,0.942-0.797        c0.476-0.482,0.822-0.876,1.052-1.183l-0.414-4.68c-0.067-0.771-0.173-1.242-0.312-1.41c-0.141-0.167-0.369-0.251-0.692-0.251        c-0.104,0-0.287,0.017-0.556,0.045l-0.063-0.271L134.576,28.113z" />
					</g>
				</g>
			</g>
		</g>
	</g>
</g>
<g>
	<rect x="173.213" y="52.746" fill="#FFFFFF" width="59.407" height="20.636" />
	<g>
		<g>
			<g>
				<g>
					<g>
						<g>
							<g>
								<defs>
									<rect id="SVGID_11_" x="171.396" y="50.347" width="63.693" height="24.586" />
								</defs>
								<clipPath id="SVGID_12_">
									<use xlink:href="#SVGID_11_" overflow="visible" />
								</clipPath>
								<g clip-path="url(#SVGID_12_)">
									<path fill="#143B8F" d="M217.108,70.254v0.326c-0.817-0.446-1.506-0.97-2.055-1.567c-0.781-0.851-1.387-1.854-1.811-3.011           c-0.424-1.155-0.635-2.356-0.635-3.603c0-1.817,0.414-3.479,1.246-4.979c0.83-1.5,1.914-2.572,3.25-3.218v0.37           c-0.668,0.398-1.217,0.943-1.646,1.637s-0.748,1.57-0.961,2.633c-0.211,1.063-0.316,2.172-0.316,3.328           c0,1.256,0.09,2.396,0.271,3.426c0.146,0.811,0.313,1.459,0.519,1.95c0.198,0.49,0.473,0.962,0.813,1.412           C216.115,69.412,216.562,69.843,217.108,70.254z" />
									<path fill="#143B8F" d="M226.882,54.574v-0.37c0.824,0.439,1.514,0.96,2.063,1.559c0.777,0.857,1.377,1.862,1.801,3.016           c0.426,1.152,0.637,2.355,0.637,3.605c0,1.818-0.412,3.479-1.24,4.979s-1.912,2.572-3.254,3.218v-0.326           c0.668-0.405,1.219-0.952,1.646-1.644c0.436-0.688,0.754-1.566,0.963-2.633c0.209-1.063,0.313-2.176,0.313-3.332           c0-1.25-0.088-2.392-0.27-3.424c-0.139-0.811-0.309-1.459-0.512-1.947c-0.203-0.485-0.477-0.957-0.813-1.407           C227.882,55.416,227.438,54.983,226.882,54.574z" />
								</g>
							</g>
						</g>
					</g>
				</g>
			</g>
			<g>
				<g>
					<g>
						<g>
							<g>
								<defs>
									<rect id="SVGID_13_" x="171.396" y="50.347" width="63.693" height="24.586" />
								</defs>
								<clipPath id="SVGID_14_">
									<use xlink:href="#SVGID_13_" overflow="visible" />
								</clipPath>
								<g clip-path="url(#SVGID_14_)">
									<path fill="#143B8F" d="M178.381,58.755c0.187,0.342,0.313,0.659,0.384,0.956c0.069,0.298,0.143,0.88,0.213,1.748           l0.356,4.332c0.326-0.423,0.799-1.092,1.418-2.007c0.299-0.446,0.668-1.055,1.104-1.823           c0.269-0.469,0.433-0.798,0.488-0.985c0.033-0.095,0.049-0.189,0.049-0.291c0-0.063-0.02-0.117-0.057-0.16           c-0.039-0.041-0.143-0.088-0.299-0.145c-0.16-0.056-0.295-0.158-0.398-0.308c-0.104-0.15-0.158-0.321-0.158-0.517           c0-0.24,0.064-0.434,0.195-0.58s0.293-0.221,0.488-0.221c0.234,0,0.439,0.107,0.607,0.321s0.252,0.509,0.252,0.885           c0,0.464-0.146,0.994-0.438,1.589c-0.293,0.596-0.856,1.51-1.692,2.743c-0.836,1.231-1.851,2.576-3.039,4.032           c-0.816,1.004-1.429,1.637-1.822,1.896c-0.396,0.262-0.734,0.393-1.021,0.393c-0.168,0-0.313-0.068-0.444-0.207           c-0.127-0.139-0.188-0.299-0.188-0.48c0-0.229,0.09-0.436,0.269-0.625c0.176-0.188,0.367-0.281,0.571-0.281           c0.107,0,0.199,0.025,0.271,0.078c0.043,0.029,0.094,0.113,0.145,0.252c0.053,0.14,0.1,0.23,0.145,0.277           c0.025,0.029,0.062,0.043,0.101,0.043c0.031,0,0.088-0.029,0.17-0.088c0.3-0.199,0.646-0.518,1.043-0.951           c0.521-0.576,0.906-1.045,1.156-1.408l-0.455-5.582c-0.076-0.922-0.188-1.481-0.344-1.683           c-0.15-0.198-0.406-0.299-0.769-0.299c-0.113,0-0.313,0.019-0.609,0.053L176,59.388L178.381,58.755z" />
									<path fill="#143B8F" d="M208.233,58.966l-0.145,0.581h-1.189l-0.895,3.847c-0.396,1.697-0.795,3.008-1.197,3.938           c-0.57,1.309-1.184,2.212-1.84,2.712c-0.5,0.382-1,0.572-1.5,0.572c-0.326,0-0.605-0.106-0.83-0.318           c-0.168-0.146-0.252-0.336-0.252-0.571c0-0.188,0.068-0.351,0.207-0.486c0.139-0.139,0.309-0.207,0.51-0.207           c0.146,0,0.271,0.049,0.369,0.148c0.103,0.102,0.15,0.215,0.15,0.344s-0.061,0.25-0.174,0.361           c-0.088,0.082-0.131,0.145-0.131,0.184c0,0.055,0.021,0.096,0.061,0.123c0.049,0.041,0.125,0.063,0.229,0.063           c0.234,0,0.479-0.078,0.738-0.238c0.258-0.158,0.486-0.395,0.688-0.707s0.391-0.768,0.569-1.358           c0.076-0.248,0.279-1.062,0.611-2.438l1.416-5.961h-1.416l0.109-0.58c0.451,0,0.77-0.035,0.943-0.102           c0.18-0.066,0.346-0.197,0.491-0.389c0.147-0.189,0.347-0.547,0.582-1.068c0.32-0.705,0.629-1.25,0.923-1.639           c0.399-0.521,0.823-0.914,1.268-1.176c0.441-0.261,0.857-0.392,1.25-0.392c0.412,0,0.744,0.112,0.994,0.339           s0.375,0.471,0.375,0.735c0,0.206-0.063,0.379-0.188,0.521c-0.125,0.141-0.285,0.211-0.479,0.211           c-0.168,0-0.308-0.054-0.412-0.16c-0.104-0.104-0.156-0.23-0.156-0.377c0-0.095,0.033-0.211,0.104-0.349           c0.072-0.138,0.105-0.229,0.105-0.276c0-0.082-0.023-0.145-0.072-0.186c-0.07-0.061-0.176-0.088-0.313-0.088           c-0.344,0-0.646,0.115-0.922,0.352c-0.361,0.313-0.688,0.799-0.978,1.461c-0.146,0.346-0.416,1.207-0.808,2.58h1.195           v-0.002L208.233,58.966L208.233,58.966z" />
									<path fill="#143B8F" d="M221.576,58.755c0.268,0.305,0.467,0.611,0.604,0.916c0.1,0.211,0.26,0.766,0.479,1.664           l0.717-1.162c0.188-0.281,0.422-0.55,0.69-0.806c0.271-0.255,0.511-0.431,0.717-0.522c0.131-0.06,0.273-0.089,0.434-0.089           c0.232,0,0.422,0.068,0.561,0.203c0.141,0.136,0.207,0.3,0.207,0.493c0,0.223-0.039,0.375-0.121,0.458           c-0.15,0.146-0.326,0.22-0.521,0.22c-0.111,0-0.232-0.025-0.365-0.078c-0.254-0.095-0.427-0.142-0.517-0.142           c-0.129,0-0.28,0.083-0.463,0.247c-0.34,0.305-0.735,0.895-1.205,1.77l0.668,3.029c0.104,0.464,0.188,0.741,0.263,0.832           c0.069,0.091,0.143,0.137,0.211,0.137c0.114,0,0.248-0.068,0.397-0.203c0.3-0.27,0.554-0.621,0.769-1.057l0.283,0.158           c-0.344,0.691-0.773,1.268-1.308,1.727c-0.298,0.258-0.552,0.387-0.757,0.387c-0.305,0-0.547-0.185-0.727-0.555           c-0.113-0.229-0.352-1.215-0.709-2.957c-0.848,1.59-1.525,2.614-2.035,3.071c-0.332,0.293-0.652,0.438-0.961,0.438           c-0.221,0-0.416-0.084-0.598-0.254c-0.131-0.129-0.193-0.303-0.193-0.521c0-0.194,0.062-0.354,0.18-0.483           c0.119-0.13,0.269-0.193,0.439-0.193s0.357,0.095,0.555,0.281c0.142,0.135,0.248,0.203,0.324,0.203           c0.064,0,0.148-0.048,0.254-0.142c0.256-0.224,0.604-0.705,1.043-1.444c0.439-0.74,0.728-1.273,0.861-1.604           c-0.338-1.426-0.52-2.18-0.547-2.264c-0.125-0.381-0.287-0.649-0.486-0.81c-0.201-0.159-0.496-0.237-0.891-0.237           c-0.125,0-0.27,0.006-0.432,0.018v-0.316L221.576,58.755z" />
								</g>
							</g>
						</g>
					</g>
				</g>
			</g>
			<g>
				<g>
					<g>
						<g>
							<g>
								<defs>
									<rect id="SVGID_15_" x="171.396" y="50.347" width="63.693" height="24.586" />
								</defs>
								<clipPath id="SVGID_16_">
									<use xlink:href="#SVGID_15_" overflow="visible" />
								</clipPath>
								<g clip-path="url(#SVGID_16_)">
									<path fill="#143B8F" d="M187.635,60.041h8.554v0.854h-8.554V60.041z M187.635,63.325h8.554v0.872h-8.554V63.325z" />
								</g>
							</g>
						</g>
					</g>
				</g>
			</g>
		</g>
	</g>
</g>
<g>
	<path fill="#143B8F" d="M203.241,122.391c-1.289,0-2.338,1.047-2.338,2.341c0,1.288,1.049,2.336,2.338,2.336   c1.291,0,2.34-1.048,2.34-2.336C205.581,123.441,204.532,122.391,203.241,122.391L203.241,122.391z" />
	<path fill="none" d="M203.241,122.391c-1.289,0-2.338,1.047-2.338,2.341c0,1.288,1.049,2.336,2.338,2.336   c1.291,0,2.34-1.048,2.34-2.336C205.581,123.441,204.532,122.391,203.241,122.391L203.241,122.391z" />
</g>
<path fill="none" stroke="#143B8F" stroke-linecap="round" stroke-linejoin="round" stroke-miterlimit="10" d="M43.487,156.836  l7.565,0.922l8.868,1.331l7.627,1.396l6.674,1.477l5.817,1.54l5.147,1.625l4.577,1.704l4.101,1.802l3.719,1.914l3.338,2.008  l3.05,2.135l2.861,2.333l2.67,2.533l2.48,2.75l2.382,3.092l2.196,3.339l2,3.571l1.812,3.78l1.621,3.938l1.524,4.305l1.432,4.706  l1.333,5.121l1.242,5.551l1.237,6.523l1.144,7.13l1.051,7.735l1.051,9.224l0.951,10.072l0.318,4.076" />
<path fill="none" stroke="#143B8F" stroke-linecap="round" stroke-linejoin="round" stroke-miterlimit="10" d="M152.585,25.03  l0.873,9.945l1.049,9.787l1.145,8.842l1.144,7.383l1.239,6.742l1.335,6.123l1.336,5.207l1.43,4.777l1.525,4.367l1.621,3.993  l1.717,3.639l1.906,3.479l2.099,3.284l2.288,3.064l2.478,2.841l2.673,2.612l2.763,2.322l3.052,2.205l3.241,2.009l3.529,1.881  l3.911,1.788l4.289,1.673l4.863,1.615l5.434,1.523l6.103,1.441l6.96,1.375l7.915,1.296l9.152,1.235l10.585,1.163l12.395,1.106" />
<g id="labels-822d30b4">
</g>
<rect x="200.903" y="148.576" fill="#FFFFFF" width="4.678" height="13.5" />
<g>
	<g>
		<defs>
			<rect id="SVGID_17_" x="197.729" y="146.245" width="12.432" height="17.554" />
		</defs>
		<clipPath id="SVGID_18_">
			<use xlink:href="#SVGID_17_" overflow="visible" />
		</clipPath>
		<g clip-path="url(#SVGID_18_)">
		</g>
	</g>
	<g>
		<defs>
			<polygon id="SVGID_19_" points="197.673,164.407 209.621,164.407 209.621,146.465 197.673,146.465 197.673,164.407    " />
		</defs>
		<clipPath id="SVGID_20_">
			<use xlink:href="#SVGID_19_" overflow="visible" />
		</clipPath>
		<g clip-path="url(#SVGID_20_)">
			<path d="M200.405,152.133c0.276-0.677,0.624-1.199,1.045-1.567s0.945-0.553,1.572-0.553c0.774,0,1.369,0.262,1.782,0.786     c0.314,0.391,0.471,0.808,0.471,1.253c0,0.73-0.441,1.487-1.326,2.268c0.595,0.242,1.044,0.588,1.348,1.038     c0.305,0.449,0.457,0.979,0.457,1.586c0,0.87-0.267,1.623-0.799,2.261c-0.694,0.83-1.699,1.245-3.017,1.245     c-0.651,0-1.095-0.084-1.33-0.252c-0.234-0.168-0.353-0.349-0.353-0.541c0-0.144,0.056-0.27,0.168-0.378     c0.111-0.108,0.246-0.163,0.402-0.163c0.119,0,0.24,0.02,0.364,0.06c0.08,0.024,0.264,0.114,0.549,0.271     c0.285,0.155,0.482,0.248,0.592,0.277c0.176,0.055,0.363,0.082,0.563,0.082c0.484,0,0.906-0.195,1.266-0.586     c0.358-0.39,0.538-0.853,0.538-1.386c0-0.391-0.083-0.771-0.25-1.142c-0.123-0.276-0.259-0.486-0.406-0.63     c-0.204-0.198-0.484-0.377-0.841-0.538c-0.356-0.16-0.721-0.24-1.092-0.24h-0.228v-0.223c0.375-0.05,0.752-0.19,1.13-0.423     c0.378-0.231,0.652-0.511,0.823-0.837c0.172-0.326,0.257-0.685,0.257-1.075c0-0.508-0.153-0.92-0.46-1.234     c-0.307-0.313-0.688-0.471-1.145-0.471c-0.736,0-1.352,0.41-1.847,1.23L200.405,152.133z" />
		</g>
	</g>
</g>
<g data-role="unshifted-hyperbola-overlay"><circle cx="203.241" cy="124.731" r="2.838" fill="#D12626"/><text x="209.241" y="118.731" fill="#D12626" font-family="Times New Roman, serif" font-size="11">A</text></g></svg>